<?xml version="1.0" encoding="UTF-8"?>
<svg xmlns="http://www.w3.org/2000/svg" width="320" height="230" viewBox="0 0 320 230">
  <rect width="320" height="230" fill="white"/>
  <text x="160" y="20" font-size="14" text-anchor="middle" font-weight="bold">Atlas: COMM (11 símbolos)</text>
  <rect x="10" y="40" width="60" height="60" fill="none" stroke="#ccc"/>
  <rect x="29" y="49" width="22" height="22" fill="none" stroke="black" stroke-width="1.0"/>
  <text x="40.0" y="60.0" font-size="5.0" text-anchor="middle">RTU</text>
  <text x="40" y="97" font-size="6" text-anchor="middle">SYM-COMM-001</text>
  <rect x="70" y="40" width="60" height="60" fill="none" stroke="#ccc"/>
  <rect x="89" y="49" width="22" height="22" fill="none" stroke="black" stroke-width="1.0"/>
  <text x="100.0" y="60.0" font-size="5.0" text-anchor="middle">SW</text>
  <text x="100" y="97" font-size="6" text-anchor="middle">SYM-COMM-002</text>
  <rect x="130" y="40" width="60" height="60" fill="none" stroke="#ccc"/>
  <line x1="145" y1="48.0" x2="205" y2="48.0" stroke="black" stroke-width="1.0"/>
  <text x="160" y="97" font-size="6" text-anchor="middle">SYM-COMM-003</text>
  <rect x="190" y="40" width="60" height="60" fill="none" stroke="#ccc"/>
  <line x1="220.0" y1="55" x2="220.0" y2="85" stroke="black" stroke-width="2.0"/>
  <polygon points="215.0,55.0 225.0,55.0 220.0,45.0" fill="none" stroke="black" stroke-width="1.0"/>
  <text x="220" y="97" font-size="6" text-anchor="middle">SYM-COMM-004</text>
  <rect x="250" y="40" width="60" height="60" fill="none" stroke="#ccc"/>
  <rect x="269" y="49" width="32" height="22" fill="none" stroke="black" stroke-width="1.0"/>
  <text x="285" y="60.0" font-size="5.0" text-anchor="middle">UPS</text>
  <text x="280" y="97" font-size="6" text-anchor="middle">SYM-COMM-005</text>
  <rect x="10" y="100" width="60" height="60" fill="none" stroke="#ccc"/>
  <rect x="29" y="109" width="32" height="32" fill="none" stroke="black" stroke-width="2.0"/>
  <text x="45" y="125" font-size="5.0" text-anchor="middle">BMS_SYMB</text>
  <text x="40" y="157" font-size="6" text-anchor="middle">RTU_SYMBOL</text>
  <rect x="70" y="100" width="60" height="60" fill="none" stroke="#ccc"/>
  <rect x="89" y="109" width="32" height="32" fill="none" stroke="black" stroke-width="2.0"/>
  <text x="105" y="125" font-size="5.0" text-anchor="middle">EMS_SYMB</text>
  <text x="100" y="157" font-size="6" text-anchor="middle">SCADA_SYMBOL</text>
  <rect x="130" y="100" width="60" height="60" fill="none" stroke="#ccc"/>
  <rect x="149" y="109" width="32" height="32" fill="none" stroke="black" stroke-width="2.0"/>
  <text x="165" y="125" font-size="5.0" text-anchor="middle">EMS_SYMB</text>
  <text x="160" y="157" font-size="6" text-anchor="middle">RTU_SYMBOL</text>
  <rect x="190" y="100" width="60" height="60" fill="none" stroke="#ccc"/>
  <rect x="209" y="109" width="32" height="32" fill="none" stroke="black" stroke-width="2.0"/>
  <text x="225" y="125" font-size="5.0" text-anchor="middle">NETWORK_</text>
  <text x="220" y="157" font-size="6" text-anchor="middle">RTU_SYMBOL</text>
  <rect x="250" y="100" width="60" height="60" fill="none" stroke="#ccc"/>
  <rect x="269" y="109" width="32" height="32" fill="none" stroke="black" stroke-width="2.0"/>
  <text x="285" y="125" font-size="5.0" text-anchor="middle">SCADA_GA</text>
  <text x="280" y="157" font-size="6" text-anchor="middle">SCADA_GATEWAY_S</text>
  <rect x="10" y="160" width="60" height="60" fill="none" stroke="#ccc"/>
  <rect x="29" y="169" width="32" height="32" fill="none" stroke="black" stroke-width="2.0"/>
  <text x="45" y="185" font-size="5.0" text-anchor="middle">SCADA_GA</text>
  <text x="40" y="217" font-size="6" text-anchor="middle">FIBER_SYMBOL</text>
</svg>
